<svg width="407.95" height="70.68" viewBox="26.0 14.66 407.95 70.68" fill="none" xmlns="http://www.w3.org/2000/svg">
  <g transform="translate(24.3, 7.5) scale(0.85)">
    <polygon points="98,50 74,91.57 26,91.57 2,50 26,8.43 74,8.43" fill="#A9E932"/>
    <path d="M37 29 L22 50 L37 71" stroke="#15120E" stroke-width="10" fill="none" stroke-linecap="round" stroke-linejoin="round"/>
    <path d="M63 29 L78 50 L63 71" stroke="#15120E" stroke-width="10" fill="none" stroke-linecap="round" stroke-linejoin="round"/>
    <circle cx="50" cy="50" r="11.5" fill="#15120E"/>
    <circle cx="50" cy="50" r="4.8" fill="#A9E932"/>
  </g>
  <path d="M123.6 66.34448258500002V34.80242869624998H138.2164882550925L143.62399574129847 48.47869610743809Q143.97006278004906 49.33737872744113 144.4103803894219 50.619925708065495Q144.85069799879477 51.902472688689855 145.29949423941673 53.24785338306239Q145.74829048003866 54.59323407743493 146.0823955925356 55.636430529931246H146.4035307512856Q146.71669129253314 54.680999671183706 147.1550152475304 53.40443365368617Q147.59333920252763 52.12786763618863 148.05659503752548 50.809916489938956Q148.51985087252334 49.49196534368929 148.88686248252333 48.52058524993687L154.29436996872928 34.80242869624998H168.50695280756753V66.34448258500002H159.16520361750972V50.06819866007356Q159.16520361750972 49.08884394881869 159.1881418431347 47.90105155256322Q159.2110800687597 46.71325915630775 159.2569565200097 45.56087092567758Q159.3028329712597 44.40848269504741 159.3237775425091 43.57074464629377H158.95676593250911Q158.6775199162579 44.458346455048634 158.273110486257 45.65860479130441Q157.8687010562561 46.858863127560184 157.4642916262552 48.034189583815355Q157.05988219625428 49.209516040070525 156.71381515750366 50.06819866007356L150.104537293802 66.34448258500002H141.54465902875882L134.91443659380778 50.06819866007356Q134.45168477255655 48.85148707506626 134.01187117693036 47.61582457318518Q133.57205758130414 46.3801620713041 133.23646282817822 45.31104811192485Q132.9008680750523 44.24193415254559 132.67148581880232 43.57074464629377H132.30447420880233Q132.35035066005233 44.220989581296195 132.3732888856773 45.290103540675446Q132.39622711130232 46.359217500054704 132.41916533692734 47.59488000193579Q132.44210356255232 48.83054250381687 132.44210356255232 50.06819866007356V66.34448258500002ZM189.3817909550324 66.89500000000001Q184.5488143387776 66.89500000000001 180.96098688314623 65.48529595125035Q177.3731594275149 64.07559190250068 175.39499507438475 61.26665609062603Q173.4168307212546 58.45772027875139 173.4168307212546 54.23309945500024Q173.4168307212546 49.9875340599997 175.39499507438475 47.17660459374945Q177.3731594275149 44.3656751274992 180.96098688314623 42.97890930437453Q184.5488143387776 41.59214348124986 189.3817909550324 41.59214348124986Q194.21476757128718 41.59214348124986 197.80259502691854 42.97890930437453Q201.39042248254987 44.3656751274992 203.36858683568002 47.17660459374945Q205.34675118881017 49.9875340599997 205.34675118881017 54.23309945500024Q205.34675118881017 58.45772027875139 203.36858683568002 61.26665609062603Q201.39042248254987 64.07559190250068 197.80259502691854 65.48529595125035Q194.21476757128718 66.89500000000001 189.3817909550324 66.89500000000001ZM189.3817909550324 61.13853579622936Q191.77634906502806 61.13853579622936 193.38502654064695 60.327219268105296Q194.9937040162658 59.51590273998123 195.79305861813623 58.06181188061053Q196.59241322000662 56.607721021239826 196.59241322000662 54.69186396750023V53.774334942500246Q196.59241322000662 51.83753331751127 195.79305861813623 50.393914743765265Q194.9937040162658 48.95029617001926 193.38502654064695 48.149451927519884Q191.77634906502806 47.34860768502051 189.3817909550324 47.34860768502051Q186.9872328450367 47.34860768502051 185.37855536941782 48.149451927519884Q183.76987789379896 48.95029617001926 182.97052329192854 50.393914743765265Q182.17116869005815 51.83753331751127 182.17116869005815 53.774334942500246V54.69186396750023Q182.17116869005815 56.607721021239826 182.97052329192854 58.06181188061053Q183.76987789379896 59.51590273998123 185.37855536941782 60.327219268105296Q186.9872328450367 61.13853579622936 189.3817909550324 61.13853579622936ZM221.47033014880927 66.89500000000001Q218.46044965630077 66.89500000000001 216.40998733129103 66.21084054000124Q214.3595250062813 65.52668108000248 213.3158469406493 63.831246038128114Q212.27216887501731 62.13581099625376 212.27216887501731 59.103977905002594V47.8991251000205H207.53891977876495V42.14266089624985H212.58033408002035L214.2637847950301 34.928096123746315H220.74726082756965V42.14266089624985H227.50704839632442V47.8991251000205H220.74726082756965V57.54821067247577Q220.74726082756965 59.295503128726956 221.4787863794474 60.21701946247816Q222.21031193132512 61.13853579622936 224.49116454007813 61.13853579622936H227.50704839632442V66.0652365687488Q226.86477807882443 66.2946188249988 225.7413090369461 66.49059056999911Q224.61783999506775 66.6865623149994 223.45896678756412 66.79078115749971Q222.30009358006046 66.89500000000001 221.47033014880927 66.89500000000001ZM246.36034340753136 66.89500000000001Q241.52736679127656 66.89500000000001 237.93953933564524 65.48529595125035Q234.35171188001388 64.07559190250068 232.37354752688373 61.26665609062603Q230.39538317375357 58.45772027875139 230.39538317375357 54.23309945500024Q230.39538317375357 49.9875340599997 232.37354752688373 47.17660459374945Q234.35171188001388 44.3656751274992 237.93953933564524 42.97890930437453Q241.52736679127656 41.59214348124986 246.36034340753136 41.59214348124986Q251.19332002378616 41.59214348124986 254.78114747941748 42.97890930437453Q258.3689749350488 44.3656751274992 260.34713928817894 47.17660459374945Q262.3253036413091 49.9875340599997 262.3253036413091 54.23309945500024Q262.3253036413091 58.45772027875139 260.34713928817894 61.26665609062603Q258.3689749350488 64.07559190250068 254.78114747941748 65.48529595125035Q251.19332002378616 66.89500000000001 246.36034340753136 66.89500000000001ZM246.36034340753136 61.13853579622936Q248.75490151752703 61.13853579622936 250.3635789931459 60.327219268105296Q251.97225646876478 59.51590273998123 252.77161107063517 58.06181188061053Q253.5709656725056 56.607721021239826 253.5709656725056 54.69186396750023V53.774334942500246Q253.5709656725056 51.83753331751127 252.77161107063517 50.393914743765265Q251.97225646876478 48.95029617001926 250.3635789931459 48.149451927519884Q248.75490151752703 47.34860768502051 246.36034340753136 47.34860768502051Q243.96578529753566 47.34860768502051 242.3571078219168 48.149451927519884Q240.74843034629794 48.95029617001926 239.94907574442755 50.393914743765265Q239.14972114255713 51.83753331751127 239.14972114255713 53.774334942500246V54.69186396750023Q239.14972114255713 56.607721021239826 239.94907574442755 58.06181188061053Q240.74843034629794 59.51590273998123 242.3571078219168 60.327219268105296Q243.96578529753566 61.13853579622936 246.36034340753136 61.13853579622936ZM266.34556369125477 66.34448258500002V42.14266089624985H273.20801326004795L273.791437172551 46.17181398874733H274.204325233801Q275.43900210879974 44.48235990999981 277.06562247379907 43.48554392250013Q278.69224283879845 42.488727935000455 280.55023911442345 42.04043570812516Q282.4082353900484 41.59214348124986 284.2263361775502 41.59214348124986Q287.64612545005076 41.59214348124986 289.91900344130136 42.72858247687515Q292.1918814325519 43.86502147250043 293.3008908800543 46.17181398874733H293.7387108213049Q294.99433226755303 44.48235990999981 296.6314249181771 43.48554392250013Q298.26851756880114 42.488727935000455 300.1265138444261 42.04043570812516Q301.9845101200511 41.59214348124986 303.8235554788023 41.59214348124986Q307.2094302263065 41.59214348124986 309.4633573006833 42.70963156000137Q311.7172843750601 43.82711963875287 312.855717025061 46.083040367505276Q313.99414967506186 48.33896109625768 313.99414967506186 51.73780579750883V66.34448258500002H305.5190577225095V52.91363626751064Q305.5190577225095 51.6779513650186 305.1934312412617 50.72451416064667Q304.8678047600138 49.77107695627474 304.2479686543922 49.153738518775356Q303.62813254877057 48.53640008127598 302.71009951002395 48.223743553775066Q301.7920664712773 47.91108702627416 300.63218523628035 47.91108702627416Q298.9297612037859 47.91108702627416 297.5065831875427 48.64960156877201Q296.0834051712994 49.38811611126986 295.24016777255457 50.694105331265874Q294.39693037380977 52.00009455126188 294.39693037380977 53.723463155005746V66.34448258500002H285.9427829925068V52.91363626751064Q285.9427829925068 51.6779513650186 285.61715651125894 50.72451416064667Q285.29153003001113 49.77107695627474 284.6716939243895 49.153738518775356Q284.05185781876787 48.53640008127598 283.1338247800212 48.223743553775066Q282.2157917412746 47.91108702627416 281.03496593502825 47.91108702627416Q279.3325419025338 47.91108702627416 277.9093638862905 48.64960156877201Q276.4861858700473 49.38811611126986 275.6534207569272 50.694105331265874Q274.8206556438071 52.00009455126188 274.8206556438071 53.723463155005746V66.34448258500002ZM328.32364130251034 66.89500000000001Q326.0677205737579 66.89500000000001 324.1224627181308 66.56339255562531Q322.17720486250374 66.23178511125063 320.7281093393775 65.42894721437565Q319.27901381625134 64.62610931750066 318.47418226500076 63.237349840000384Q317.66935071375013 61.848590362500104 317.66935071375013 59.70935441624831Q317.66935071375013 56.79819341624898 319.2376286874992 55.134175231248705Q320.8059066612483 53.470157046248424 323.692135781247 52.69873600624752Q326.5783649012457 51.92731496624662 330.50080148312065 51.71887728124601Q334.4232380649956 51.510439596245405 339.1355425899985 51.510439596245405V50.77540834875214Q339.1355425899985 49.390132166256436 338.4409108443751 48.559864721258585Q337.74627909875164 47.72959727626073 336.38792845063216 47.36457932063635Q335.0295778025127 46.99956136501197 332.9840660125255 46.99956136501197Q331.5179908262902 46.99956136501197 330.1576465237951 47.21249037251044Q328.7973022213 47.425419380008904 327.92564964755 47.91360709500737Q327.0539970738 48.40179481000584 327.0539970738 49.252502812506435V49.603565187501545H318.4791776012452Q318.43330114999526 49.42005938250155 318.42282886437056 49.273951397502465Q318.41235657874586 49.12784341250338 318.41235657874586 48.923393036254Q318.41235657874586 46.76719982750404 320.1092812612492 45.11166027375285Q321.8062059437525 43.45612072000166 325.1541788575091 42.52413210062576Q328.5021517712658 41.59214348124986 333.4388432162743 41.59214348124986Q338.0045357425315 41.59214348124986 341.16700919691255 42.38450909250015Q344.32948265129363 43.17687470375044 345.9700585969223 44.9411244224998Q347.6106345425509 46.70537414124915 347.6106345425509 49.68335616374788V59.3493541974794Q347.6106345425509 60.14621113122755 347.96717386692615 60.64237346372846Q348.32371319130147 61.13853579622936 349.12057012504965 61.13853579622936H351.55999665880205V66.0403046887482Q350.9017771062972 66.29860613375003 349.4865961081673 66.59680306687503Q348.07141511003744 66.89500000000001 346.4537773900338 66.89500000000001Q344.1858947350278 66.89500000000001 342.82506881939696 66.42775685625094Q341.4642429037662 65.96051371250186 340.79555106563663 65.1636567787537Q340.12685922750705 64.36679984500554 339.84362590250464 63.41136898625801H339.4766142925046Q338.16714177750407 64.47949731875494 336.46522175875623 65.2763542525031Q334.7633017400084 66.07321118625124 332.7277806225103 66.48410559312563Q330.69225950501215 66.89500000000001 328.32364130251034 66.89500000000001ZM330.70619268503043 61.51251399623851Q331.75039716502005 61.51251399623851 333.16310289563864 61.27864041749065Q334.5758086262572 61.044766838742795 335.9526061775038 60.53762820687055Q337.32940372875044 60.030489574998306 338.2324731593745 59.22714766437667Q339.1355425899985 58.42380575375505 339.1355425899985 57.259937210006896V55.871681746253266Q334.6206770500139 55.871681746253266 331.7224636031506 56.24068701062887Q328.8242501562872 56.60969227500447 327.4469485912939 57.36067275750263Q326.0696470263007 58.111653240000784 326.0696470263007 59.326393571243436Q326.0696470263007 60.26087985874159 326.7478255231726 60.72812300249066Q327.4260040200445 61.19536614623974 328.5006173294149 61.35394007123912Q329.57523063878534 61.51251399623851 330.70619268503043 61.51251399623851ZM353.6025739687532 66.34448258500002V42.14266089624985H360.46502353754636L361.0484474500494 46.23464770249551H361.44039094005Q362.1444869438049 44.77558390749125 363.2574837000585 43.724412837492494Q364.3704804563122 42.673241767493735 365.8031227306868 42.12022668437149Q367.2357650050615 41.56721160124925 368.84643613505597 41.56721160124925Q369.77193977755843 41.56721160124925 370.599709554434 41.694368669374555Q371.4274793313096 41.821525737499854 372.169477168812 42.10077175375107V48.77375695502842H368.1563181125413Q366.5456469825469 48.77375695502842 365.39623803317465 49.293361526900966Q364.2468290838024 49.812966098773515 363.51679317255366 50.706067257519535Q362.78675726130484 51.59916841626555 362.4322115913052 52.736111425637475Q362.0776659213055 53.8730544350094 362.0776659213055 55.15360776125816V66.34448258500002ZM374.7057415437528 66.34448258500002V33.10500000000001H383.1808334963051V52.01013002497282L394.21418722376285 42.14266089624985H404.6230567188243L394.42950189632876 51.80563484750151L404.9152726888224 66.34448258500002H394.94821044376283L388.01284688628857 56.48599610127278L383.1808334963051 59.945703262507465V66.34448258500002ZM419.2636928325337 66.89500000000001Q416.5529949000325 66.89500000000001 413.9594857637786 66.45917371312501Q411.3659766275247 66.02334742625003 409.28359343189425 65.13922891249973Q407.20121023626376 64.25511039874945 405.9610564118848 62.83094675562387Q404.72090258750586 61.40678311249828 404.72090258750586 59.40517651999649Q404.72090258750586 59.22565802374771 404.73137487313056 59.05461815874802Q404.74184715875526 58.88357829374833 404.7877236100053 58.70007248874833H413.50017243631004Q413.4752405563094 58.82074458000016 413.4647682706847 58.945907993749856Q413.45429598506 59.071071407499545 413.45429598506 59.16282430999954Q413.47922786506064 60.11028055124464 414.2910484069314 60.69869979999219Q415.1028689488021 61.28711904873974 416.42382177692065 61.56038410186412Q417.7447746050392 61.83364915498851 419.28463740378305 61.83364915498851Q420.6001132825215 61.83364915498851 422.04173820189186 61.68953482436504Q423.48336312126224 61.54542049374157 424.46771316876163 61.08415831311932Q425.45206321626097 60.622896132497075 425.45206321626097 59.62557613125075Q425.45206321626097 58.60731155875504 424.1515733462561 58.17945988938249Q422.8510834762513 57.75160822000994 420.6515114843736 57.51574098688647Q418.45193949249585 57.279873753763006 415.719288961252 56.91684945251423Q413.66681058125573 56.62064617376485 411.83374618563136 56.12847115001516Q410.000681790007 55.63629612626548 408.5765181468814 54.80852634938988Q407.1523545037558 53.98075657251428 406.3330633581293 52.669290403138085Q405.51377221250283 51.35782423376189 405.51377221250283 49.44797054376009Q405.51377221250283 47.25089622000464 406.59535211188233 45.75193693687723Q407.6769320112619 44.25297765374981 409.60074128189297 43.33345497437422Q411.52455055252403 42.413932294998624 414.0971151175286 42.00303788812424Q416.6696796825331 41.59214348124986 419.65164901378307 41.59214348124986Q422.2626194262818 41.59214348124986 424.6746164119113 41.990571948123936Q427.0866133975409 42.38900041499801 428.98748444254693 43.235721108747384Q430.888355487553 44.08244180249676 432.00334589818226 45.391914317497346Q433.11833630881154 46.70138683249793 433.11833630881154 48.50253035750157Q433.11833630881154 48.66110428250095 433.11833630881154 48.846603741876564Q433.11833630881154 49.03210320125217 433.0724598575615 49.16574524625094H424.40987479125795V48.88251192124851Q424.40987479125795 48.09761691375401 423.6962921287607 47.61341650750677Q422.9827094662635 47.12921610125952 421.88715158564366 46.89135521376045Q420.7915937050239 46.65349432626137 419.55590880253186 46.65349432626137Q419.08018702753367 46.65349432626137 418.15168170316235 46.68690483751106Q417.22317637879104 46.72031534876075 416.26126054317 46.88936155938483Q415.29934470754904 47.05840777000891 414.6316384963018 47.431904356882384Q413.9639322850545 47.80540094375585 413.9639322850545 48.50651766625279Q413.9639322850545 49.36620831374911 415.0983776263042 49.758655817496354Q416.2328229675539 50.151103321243596 418.0783533031786 50.34109410311707Q419.9238836388032 50.53108488499054 422.0800768475532 50.777424403738706Q424.2951164613001 51.02376392248687 426.4198928131759 51.424186043736555Q428.5446691650518 51.824608164986245 430.2291279075548 52.64190565623714Q431.9135866500579 53.45920314748805 432.9079049694353 54.874888159364545Q433.9022232888127 56.29057317124105 433.9022232888127 58.56743847124284Q433.9022232888127 60.94004398249585 432.80817744943283 62.55170073937265Q431.714131610053 64.16335749624945 429.7444458881719 65.11629068687473Q427.77476016629083 66.06922387750002 425.0999704131616 66.48211193875002Q422.4251806600324 66.89500000000001 419.2636928325337 66.89500000000001Z" fill="#15120E"/>
</svg>
